HIERARCHY
ROOT pelvis
{
  OFFSET 0 100 0
  CHANNELS 6 Xposition Yposition Zposition Zrotation Xrotation Yrotation
  JOINT pelvis_right_femur
  {
    OFFSET -10.78128 -3.44521 -0.5502486
    CHANNELS 3 Zrotation Xrotation Yrotation
    JOINT right_femur_tibia
    {
      OFFSET -0.8047443 -44.0398 -0.1307829
      CHANNELS 3 Zrotation Xrotation Yrotation
      JOINT right_tibia_foot
      {
        OFFSET 3.006224 -47.83518 -5
        CHANNELS 3 Zrotation Xrotation Yrotation
        End Site
        {
          OFFSET 0 -5 15
        }
      }
    }
  }
  JOINT pelvis_left_femur
  {
    OFFSET 10.78128 -3.44521 -0.5502486
    CHANNELS 3 Zrotation Xrotation Yrotation
    JOINT left_femur_tibia
    {
      OFFSET 0.8047443 -44.0398 -0.1307829
      CHANNELS 3 Zrotation Xrotation Yrotation
      JOINT left_tibia_foot
      {
        OFFSET -4.370144 -48.10324 -4.275266
        CHANNELS 3 Zrotation Xrotation Yrotation
        End Site
        {
          OFFSET 0 -5 15
        }
      }
    }
  }
  JOINT pelvis_spine1
  {
    OFFSET 0 6.468898 -3.129235
    CHANNELS 3 Zrotation Xrotation Yrotation
    JOINT spine1
    {
      OFFSET 0 23.15396 4.99043
      CHANNELS 3 Zrotation Xrotation Yrotation
      JOINT spine2
      {
        OFFSET 0 20.79997 -5.064912
        CHANNELS 3 Zrotation Xrotation Yrotation
        JOINT neck
        {
          OFFSET 0 14.38658 9.616178
          CHANNELS 3 Zrotation Xrotation Yrotation
          End Site
          {
            OFFSET 0 20 0
          }
        }
      }
      JOINT right_manubrium
      {
        OFFSET -5.722621 16.35077 3.967754
        CHANNELS 3 Zrotation Xrotation Yrotation
        JOINT right_clavicle
        {
          OFFSET -13.16364 1.694482 -4.693211
          CHANNELS 3 Zrotation Xrotation Yrotation
          JOINT right_humerus
          {
            OFFSET -28.5034 -0.3100689 -2.792744
            CHANNELS 3 Zrotation Xrotation Yrotation
            JOINT right_radius
            {
              OFFSET -25.15693 0.02248979 -1.271978
              CHANNELS 3 Zrotation Xrotation Yrotation
              End Site
              {
                OFFSET -15 0 0
              }
            }
          }
        }
      }
      JOINT left_manubrium
      {
        OFFSET 5.722621 16.35077 3.967754
        CHANNELS 3 Zrotation Xrotation Yrotation
        JOINT left_clavicle
        {
          OFFSET 13.16364 1.694482 -4.693211
          CHANNELS 3 Zrotation Xrotation Yrotation
          JOINT left_humerus
          {
            OFFSET 29.39168 -1.063119 -2.237045
            CHANNELS 3 Zrotation Xrotation Yrotation
            JOINT left_radius
            {
              OFFSET 24.59957 -0.9528479 0.9047498
              CHANNELS 3 Zrotation Xrotation Yrotation
              End Site
              {
                OFFSET 15 -0 -0
              }
            }
          }
        }
      }
    }
  }
}
MOTION
Frames: 13
Frame Time: 0.0416666666667
0 103.5113 0 0.1043048 -1.737522 0.1419515 4.134521 -19.24812 6.898437 -0 36.09262 -0 -7.154353 -12.87082 -3.116289 -6.159785 10.58802 -20.79731 -0 8.086793 -0 6.535908 -18.4489 25.05739 -3.168936 -2.362594 3.412708 2.380117 8.89381 -7.24682 1.657926 23.05101 6.61955 3.027711 -23.5692 9.476016 5.064287 -18.28846 11.19704 85.78805 32.14581 -18.23763 -0 0 14.31955 -8.810047 7.947028 4.288787 6.70985 -19.7957 -1.330028 -93.4406 26.32082 19.54722 0 0 -13.28921 10.49143 18.89788 1.253258
0.1456375 103.4213 2.186897 -0.03090387 -1.192844 0.2854682 4.467219 -20.44074 6.981409 -0 34.60228 -0 -6.996008 -12.91168 -2.995537 -6.081396 10.95688 -20.77224 -0 7.767415 -0 6.411484 -18.87292 24.8266 -3.112216 -2.365398 3.448655 2.534143 8.808598 -7.373538 1.655778 22.7783 6.670187 3.066538 -23.90089 9.558759 5.171865 -18.25833 11.16862 85.69203 32.40811 -18.4582 -0 0 14.42036 -8.484024 8.076878 4.128638 6.903456 -19.88108 -1.124453 -93.45298 26.15054 19.51707 0 0 -13.57607 10.73401 18.68643 0.9429569
0.3667425 103.2282 4.550191 -0.1883842 0.574039 0.4853702 5.278473 -24.08999 7.661566 -0 30.73695 -0 -6.187137 -12.77306 -2.517252 -6.22723 11.71659 -20.72128 -0 5.900217 -0 7.877716 -19.41096 25.04999 -3.14121 -2.471248 3.89841 2.878688 8.991247 -7.7575 1.578519 21.74798 6.942249 3.202696 -25.03048 9.875766 5.605143 -18.60724 11.23647 85.73151 34.23913 -19.1856 -0 0 14.55424 -7.495088 8.48657 3.960586 7.301497 -20.39709 -0.7701391 -92.57375 24.83537 19.09767 0 0 -16.23192 12.34792 16.93207 -0.5177764
0.6116235 102.9072 7.167491 -0.448729 1.587345 0.7331021 5.925738 -26.42689 7.683566 -0 27.72794 -0 -5.934925 -11.97711 -2.208704 -6.130421 12.39058 -20.28355 -0 5.673798 -0 7.742344 -20.05365 24.45024 -3.00476 -2.426208 3.953913 3.126734 8.954616 -7.988577 1.536473 21.19033 7.112006 3.310766 -25.65263 10.02146 5.661183 -18.53776 11.21143 85.85808 34.72154 -19.72458 -0 0 14.3589 -7.215057 8.726927 3.912733 7.641507 -20.72605 -0.5019678 -92.1646 24.1137 18.67816 0 0 -17.45228 12.97762 16.08931 -1.239692
0.8557246 102.5281 10.12197 -0.85682 2.329478 1.028652 6.610651 -28.28361 7.446968 -0 25.02998 -0 -6.000159 -10.81645 -1.970215 -5.844044 13.09827 -19.62125 -0 6.635361 -0 6.480144 -20.73889 23.16439 -2.693543 -2.307783 3.790533 3.350495 8.802035 -8.187957 1.50125 20.78623 7.255555 3.426099 -26.11416 10.09346 5.55827 -18.24416 11.13015 86.01894 34.52921 -20.25284 -0 0 14.04746 -7.234113 8.936986 3.878713 7.95278 -20.97021 -0.2484044 -92.08105 23.75052 18.37057 0 0 -17.87694 13.02061 15.6906 -1.486311
1.092626 102.1542 13.43929 -1.329302 2.884563 1.363848 7.28151 -29.66861 7.184062 -0 22.89069 -0 -6.26095 -9.592801 -1.787983 -5.480512 13.68754 -18.88873 -0 8.464068 -0 4.715769 -21.15298 21.52947 -2.283009 -2.155274 3.541252 3.533395 8.634026 -8.360438 1.459475 20.46777 7.383306 3.53704 -26.48187 10.11579 5.41598 -17.87825 11.04238 86.21616 34.1306 -20.74491 -0 0 13.68476 -7.371674 9.130545 3.878529 8.140219 -21.13948 -0.07077189 -92.13381 23.6303 18.201 0 0 -17.93549 12.69471 15.44815 -1.331044
1.323519 101.8426 17.1498 -1.833233 3.303354 1.729035 7.92056 -30.66378 6.904944 -0 21.14336 -0 -6.675955 -8.331279 -1.625619 -5.081696 14.09006 -18.06064 -0 11.12877 -0 2.719479 -21.16845 19.64785 -1.798821 -1.970648 3.259931 3.676951 8.495294 -8.510127 1.401227 20.20559 7.503496 3.639809 -26.7879 10.09213 5.250898 -17.47868 10.97244 86.48927 33.68463 -21.2224 -0 0 13.21511 -7.607715 9.318147 3.946315 8.187599 -21.27745 0.002003251 -92.17161 23.60773 18.07928 0 0 -17.90033 12.17845 15.19387 -0.9211581
1.551478 101.6501 21.27616 -2.340941 3.565872 2.107577 8.490011 -31.17651 6.584877 -0 19.75694 -0 -7.242859 -7.101231 -1.473229 -4.66155 14.20641 -17.13026 -0 14.73185 -0 0.6028899 -20.68761 17.58716 -1.257075 -1.752281 2.972244 3.776734 8.398987 -8.626499 1.324235 20.01707 7.606709 3.727043 -27.01903 10.01085 5.068029 -17.0538 10.93313 86.83809 33.2312 -21.66892 -0 0 12.62021 -7.946434 9.498251 4.094933 8.076045 -21.38352 -0.04696567 -92.16142 23.6537 17.98986 0 0 -17.80347 11.5179 14.90179 -0.296174
1.780209 101.6359 25.83208 -2.812441 3.641835 2.474133 8.940633 -31.0692 6.184666 -0 18.66549 -0 -7.953542 -5.972085 -1.321249 -4.237048 13.90068 -16.08186 -0 19.40793 -0 -1.498068 -19.61795 15.44574 -0.6814682 -1.500443 2.714296 3.8258 8.363892 -8.694745 1.22711 19.92522 7.68078 3.791245 -27.15329 9.856947 4.866113 -16.61603 10.93871 87.26185 32.80193 -22.06486 -0 0 11.88289 -8.405673 9.669941 4.340799 7.792237 -21.46002 -0.2320579 -92.07038 23.72606 17.91564 0 0 -17.6795 10.76841 14.54681 0.4890408
2.013947 101.8582 30.80925 -3.188546 3.507044 2.795236 9.218032 -30.17556 5.688907 -0 17.7957 -0 -8.767472 -5.047613 -1.165674 -3.835065 13.00155 -14.9238 -0 25.19902 -0 -3.387005 -17.90646 13.38923 -0.1168591 -1.222447 2.544128 3.815713 8.415365 -8.696729 1.110955 19.94763 7.712201 3.825955 -27.16876 9.618941 4.6546 -16.19941 11.00438 87.74038 32.46016 -22.3774 -0 0 11.02403 -8.98774 9.834616 4.69657 7.331666 -21.50566 -0.5558851 -91.8758 23.77925 17.8634 0 0 -17.57972 9.990684 14.09705 1.378363
2.255424 102.3636 36.16447 -3.39488 3.136104 3.031783 9.268634 -28.3115 5.099711 -0 17.04544 -0 -9.609653 -4.448946 -1.010284 -3.484071 11.31397 -13.68071 -0 31.99371 -0 -4.84985 -15.58232 11.6272 0.3718396 -0.9307901 2.535233 3.735494 8.582806 -8.610628 0.9810287 20.09821 7.685787 3.8258 -27.03647 9.28992 4.443693 -15.85865 11.14286 88.22997 32.26596 -22.55508 -0 0 10.10929 -9.695649 9.996414 5.170747 6.712867 -21.52129 -1.003799 -91.57212 23.75938 17.85621 0 0 -17.5542 9.255837 13.53289 2.297183
2.502775 103.1713 41.80754 -3.356801 2.510286 3.146636 9.058772 -25.32967 4.449307 -0 16.28489 -0 -10.36766 -4.302927 -0.8690219 -3.202009 8.663216 -12.39837 -0 39.4052 -0 -5.715687 -12.80396 10.37766 0.7059498 -0.6407664 2.761159 3.574193 8.88805 -8.414149 0.8482879 20.38074 7.586651 3.787127 -26.72334 8.872716 4.242957 -15.6669 11.35845 88.65004 32.25363 -22.5187 -0 0 9.268188 -10.5305 10.16271 5.762573 5.989427 -21.50829 -1.534653 -91.1878 23.61926 17.93803 0 0 -17.6262 8.628207 12.86549 3.162537
2.74659 104.2499 47.59969 -3.026733 1.622084 3.115543 8.593895 -21.1954 3.79544 -0 15.36303 -0 -10.91023 -4.709019 -0.7638509 -2.979768 4.966894 -11.13145 -0 46.68677 -0 -5.924603 -9.875155 9.820043 0.8143075 -0.3664415 3.265278 3.323525 9.330092 -8.089791 0.7303105 20.78494 7.402098 3.706535 -26.19483 8.384285 4.048747 -15.70315 11.63941 88.88453 32.38824 -22.15714 -0 0 8.690505 -11.49797 10.34107 6.460106 5.256151 -21.46912 -2.079978 -90.7917 23.33059 18.16013 0 0 -17.76261 8.150491 12.15554 3.888349
